<svg class="hamopen" xmlns="http://www.w3.org/2000/svg" version="1.1" xmlns:xlink="http://www.w3.org/1999/xlink" xmlns:svgjs="http://svgjs.com/svgjs" width="30" height="30" x="0" y="0" viewBox="0 0 220 220" style="enable-background:new 0 0 512 512" xml:space="preserve"><g><path d="M176.54 112.18H43.46c-2.21 0-4-1.79-4-4s1.79-4 4-4h133.08c2.21 0 4 1.79 4 4s-1.79 4-4 4zM160 47.18H43c-2.21 0-4-1.79-4-4s1.79-4 4-4h117c2.21 0 4 1.79 4 4s-1.79 4-4 4zM135 181.18H43c-2.21 0-4-1.79-4-4s1.79-4 4-4h92c2.21 0 4 1.79 4 4s-1.79 4-4 4z" fill="#000000" data-original="#000000"></path></g></svg>