<svg xmlns="http://www.w3.org/2000/svg" version="1.1" xmlns:xlink="http://www.w3.org/1999/xlink" xmlns:svgjs="http://svgjs.com/svgjs" width="20" height="20" x="0" y="0" viewBox="0 0 512 512" style="enable-background:new 0 0 512 512" xml:space="preserve" class="">
  <g>
    <path d="M508.875 493.792 353.089 338.005c32.358-35.927 52.245-83.296 52.245-135.339C405.333 90.917 314.417 0 202.667 0S0 90.917 0 202.667s90.917 202.667 
                    202.667 202.667c52.043 0 99.411-19.887 135.339-52.245l155.786 155.786a10.634 10.634 0 0 0 7.542 3.125c2.729 0 5.458-1.042 7.542-3.125 4.166-4.167 4.166-10.917-.001-15.083zM202.667 
                    384c-99.979 0-181.333-81.344-181.333-181.333S102.688 21.333 202.667 21.333 384 102.677 384 202.667 302.646 384 202.667 384z" fill="#000000" data-original="#000000" class=""/>
  </g>
</svg>
